<?xml version="1.0" encoding="utf-8"?>
<!-- Generator: Adobe Illustrator 24.1.0, SVG Export Plug-In . SVG Version: 6.00 Build 0)  -->
<svg version="1.1" id="Capa_1" xmlns="http://www.w3.org/2000/svg" xmlns:xlink="http://www.w3.org/1999/xlink" x="0px" y="0px"
	 viewBox="0 0 32 32" style="enable-background:new 0 0 32 32;" xml:space="preserve">
<style type="text/css">
	.st0{fill:url(#SVGID_1_);}
	.st1{fill:url(#SVGID_2_);}
	.st2{fill:url(#SVGID_3_);}
	.st3{fill:url(#SVGID_4_);}
	.st4{fill:url(#SVGID_5_);}
	.st5{fill:url(#SVGID_6_);}
	.st6{fill:url(#SVGID_7_);}
	.st7{fill:url(#SVGID_8_);}
	.st8{fill:url(#SVGID_9_);}
	.st9{fill:url(#SVGID_10_);}
	.st10{fill:url(#SVGID_11_);}
	.st11{fill:url(#SVGID_12_);}
	.st12{fill:url(#SVGID_13_);}
	.st13{fill:url(#SVGID_14_);}
	.st14{fill:url(#SVGID_15_);}
</style>
<g id="Capa_9">
	<g>
		<linearGradient id="SVGID_1_" gradientUnits="userSpaceOnUse" x1="3.1558" y1="10.1192" x2="7.1787" y2="10.1192">
			<stop  offset="0" style="stop-color:#2E3192"/>
			<stop  offset="1" style="stop-color:#373177"/>
		</linearGradient>
		<path class="st0" d="M5.4,6.7c0-0.1,0.1-0.2,0.2-0.2h1.3c0.2,0,0.2,0.1,0.2,0.2v4.8c0,0.3-0.1,0.6-0.2,0.8
			c-0.1,0.3-0.3,0.5-0.5,0.7c-0.2,0.2-0.4,0.3-0.7,0.5c-0.3,0.1-0.5,0.2-0.9,0.2c-0.2,0-0.3,0-0.5-0.1s-0.3-0.1-0.5-0.2
			c-0.2-0.1-0.3-0.2-0.4-0.3c-0.1-0.1-0.2-0.2-0.3-0.4c0,0,0,0,0-0.1c0-0.1,0-0.1,0.1-0.2L4,11.8c0,0,0.1,0,0.1-0.1s0.1,0,0.1,0
			c0,0,0.1,0,0.1,0.1c0,0,0.1,0.1,0.1,0.1c0.1,0,0.1,0.1,0.2,0.1C4.7,12,4.8,12,4.9,12c0.1,0,0.1,0,0.2,0s0.1-0.1,0.2-0.1
			c0.1,0,0.1-0.1,0.1-0.2c0-0.1,0-0.1,0-0.2L5.4,6.7L5.4,6.7z"/>
		<linearGradient id="SVGID_2_" gradientUnits="userSpaceOnUse" x1="8.2176" y1="10.9136" x2="12.1386" y2="10.9136">
			<stop  offset="0" style="stop-color:#2E3192"/>
			<stop  offset="1" style="stop-color:#373177"/>
		</linearGradient>
		<path class="st1" d="M8.2,8.4c0-0.1,0-0.1,0-0.1c0,0,0.1,0,0.1,0h3.5c0.1,0,0.1,0,0.1,0.1c0,0,0,0.1,0,0.1v0.9c0,0,0,0.1,0,0.1
			c0,0-0.1,0.1-0.1,0.1H9.6v0.9h1.8c0,0,0.1,0,0.1,0c0,0,0,0.1,0,0.1v0.8c0,0,0,0.1,0,0.1c0,0-0.1,0.1-0.1,0.1H9.6v0.9H12
			c0.1,0,0.2,0.1,0.2,0.2v0.9c0,0,0,0,0,0.1c0,0.1-0.1,0.1-0.1,0.1H8.4c-0.1,0-0.1,0-0.1,0c0,0,0-0.1,0-0.1L8.2,8.4L8.2,8.4z"/>
		<linearGradient id="SVGID_3_" gradientUnits="userSpaceOnUse" x1="12.7191" y1="10.9136" x2="16.8846" y2="10.9136">
			<stop  offset="0" style="stop-color:#2E3192"/>
			<stop  offset="1" style="stop-color:#373177"/>
		</linearGradient>
		<path class="st2" d="M12.7,8.4c0-0.1,0-0.1,0.1-0.1s0.1,0,0.1,0h3.8c0,0,0.1,0,0.1,0c0,0,0.1,0.1,0.1,0.1v0.9c0,0,0,0.1,0,0.1
			s-0.1,0.1-0.1,0.1h-1.2v3.9c0,0,0,0.1-0.1,0.1c0,0-0.1,0.1-0.1,0.1h-1c0,0-0.1,0-0.1-0.1c0,0-0.1-0.1-0.1-0.1V9.5h-1.2
			c-0.1,0-0.1,0-0.1-0.1c0,0-0.1-0.1-0.1-0.1L12.7,8.4L12.7,8.4z"/>
		<linearGradient id="SVGID_4_" gradientUnits="userSpaceOnUse" x1="16.6137" y1="10.9085" x2="21.7772" y2="10.9085">
			<stop  offset="0" style="stop-color:#2E3192"/>
			<stop  offset="1" style="stop-color:#373177"/>
		</linearGradient>
		<path class="st3" d="M18.5,8.4C18.5,8.4,18.6,8.4,18.5,8.4c0-0.1,0.1-0.1,0.1-0.1c0,0,0,0,0.1,0c0,0,0,0,0.1,0h0.9
			c0,0,0.1,0,0.1,0c0,0,0.1,0.1,0.1,0.1l0.1,0.2l1.9,4.8c0,0.1,0,0.1,0,0.1s-0.1,0-0.1,0h-1c-0.1,0-0.1,0-0.1,0c0,0-0.1-0.1-0.1-0.1
			c-0.1-0.1-0.1-0.2-0.1-0.4c0-0.1-0.1-0.2-0.1-0.4h-1.9c0,0.1-0.1,0.2-0.1,0.4c-0.1,0.1-0.1,0.2-0.1,0.4c0,0.1-0.1,0.1-0.2,0.1h-1
			c0,0-0.1,0-0.1,0s0-0.1,0-0.1L18.5,8.4z M19.2,9.9c0,0.1-0.1,0.3-0.1,0.4c-0.1,0.1-0.1,0.3-0.1,0.4c0,0.1-0.1,0.3-0.1,0.4
			c-0.1,0.1-0.1,0.3-0.1,0.4h1.1L19.2,9.9z"/>
	</g>
</g>
<g id="Capa_8">
	<g>
		<linearGradient id="SVGID_5_" gradientUnits="userSpaceOnUse" x1="22.7204" y1="12.1307" x2="25.2156" y2="12.1307">
			<stop  offset="0" style="stop-color:#2E3192"/>
			<stop  offset="1" style="stop-color:#373177"/>
		</linearGradient>
		<path class="st4" d="M24.5,13.4c0,0-0.1,0.1-0.1,0.1s-0.1,0.1-0.1,0.1c-0.1,0-0.1,0.1-0.2,0.1c-0.1,0-0.1,0-0.2,0
			c-0.2,0-0.3,0-0.5-0.1c-0.1-0.1-0.3-0.2-0.4-0.3c-0.1-0.1-0.2-0.2-0.2-0.4c-0.1-0.2-0.1-0.3-0.1-0.5c0-0.2,0-0.3,0.1-0.5
			c0.1-0.2,0.1-0.3,0.2-0.4c0.1-0.1,0.2-0.2,0.4-0.3c0.1-0.1,0.3-0.1,0.5-0.1c0.1,0,0.1,0,0.2,0c0.1,0,0.1,0,0.2,0.1
			c0.1,0,0.1,0.1,0.1,0.1c0,0,0.1,0.1,0.1,0.1v-0.8c0,0,0-0.1,0-0.1c0,0,0.1,0,0.1,0h0.4c0,0,0,0,0.1,0c0,0,0,0,0.1,0c0,0,0,0,0,0
			c0,0,0,0,0,0.1v2.8c0,0.1-0.1,0.1-0.2,0.1h-0.4c0,0,0,0-0.1,0c0,0,0,0,0,0c0,0,0,0,0,0C24.6,13.6,24.6,13.5,24.5,13.4L24.5,13.4z
			 M23.4,12.5c0,0.1,0,0.2,0,0.2c0,0.1,0.1,0.1,0.1,0.2c0.1,0.1,0.1,0.1,0.2,0.1c0.1,0,0.1,0.1,0.2,0.1c0.1,0,0.2,0,0.2,0
			c0.1,0,0.1-0.1,0.2-0.1c0.1-0.1,0.1-0.1,0.1-0.2s0.1-0.1,0.1-0.2v0c0-0.1,0-0.2,0-0.2c0-0.1-0.1-0.1-0.1-0.2
			c-0.1-0.1-0.1-0.1-0.2-0.1c-0.1,0-0.2-0.1-0.2-0.1c-0.1,0-0.2,0-0.2,0.1c-0.1,0-0.1,0.1-0.2,0.1c-0.1,0.1-0.1,0.1-0.1,0.2
			C23.4,12.3,23.4,12.4,23.4,12.5z"/>
		<linearGradient id="SVGID_6_" gradientUnits="userSpaceOnUse" x1="25.6128" y1="12.4566" x2="27.9553" y2="12.4566">
			<stop  offset="0" style="stop-color:#2E3192"/>
			<stop  offset="1" style="stop-color:#373177"/>
		</linearGradient>
		<path class="st5" d="M27.7,13.4c-0.1,0.1-0.2,0.2-0.4,0.2c-0.1,0.1-0.3,0.1-0.4,0.1c-0.2,0-0.3,0-0.5-0.1
			c-0.2-0.1-0.3-0.2-0.4-0.3c-0.1-0.1-0.2-0.2-0.3-0.4c-0.1-0.2-0.1-0.3-0.1-0.5c0-0.1,0-0.2,0-0.3c0-0.1,0.1-0.2,0.1-0.3
			s0.1-0.2,0.2-0.3c0.1-0.1,0.2-0.1,0.2-0.2c0.1-0.1,0.2-0.1,0.3-0.1c0.1,0,0.2,0,0.3,0c0.1,0,0.2,0,0.3,0s0.2,0.1,0.3,0.1
			c0.1,0,0.2,0.1,0.2,0.2c0.1,0.1,0.1,0.1,0.2,0.2c0.1,0.1,0.1,0.2,0.1,0.3s0,0.2,0,0.3c0,0.1,0,0.1,0,0.2s0,0.1,0,0.1
			c0,0-0.1,0-0.1,0.1c0,0-0.1,0-0.2,0h-1.4c0,0.1,0,0.1,0.1,0.2c0,0.1,0.1,0.1,0.1,0.1c0.1,0,0.1,0.1,0.2,0.1c0.1,0,0.1,0,0.2,0
			c0,0,0.1,0,0.1,0c0.1,0,0.1,0,0.1,0c0,0,0.1,0,0.1-0.1s0.1,0,0.1-0.1c0,0,0,0,0.1,0c0,0,0,0,0.1,0s0,0,0.1,0c0,0,0,0,0.1,0.1
			l0.2,0.2c0,0,0,0,0,0c0,0,0,0,0,0C27.8,13.3,27.8,13.3,27.7,13.4C27.7,13.3,27.7,13.4,27.7,13.4z M26.8,11.8c-0.1,0-0.1,0-0.1,0
			s-0.1,0-0.1,0.1c0,0-0.1,0.1-0.1,0.1c0,0-0.1,0.1-0.1,0.1h1c0-0.1-0.1-0.1-0.1-0.1s-0.1-0.1-0.1-0.1S27,11.9,27,11.8
			C26.9,11.8,26.9,11.8,26.8,11.8z"/>
	</g>
</g>
<g id="Capa_4">
	<linearGradient id="SVGID_7_" gradientUnits="userSpaceOnUse" x1="3.1656" y1="17.9817" x2="9.0669" y2="17.9817">
		<stop  offset="0" style="stop-color:#2E3192"/>
		<stop  offset="1" style="stop-color:#373177"/>
	</linearGradient>
	<path class="st6" d="M5.4,15.1C5.4,15.1,5.4,15.1,5.4,15.1c0-0.1,0.1-0.1,0.1-0.1c0,0,0,0,0.1,0c0,0,0.1,0,0.1,0h1c0,0,0.1,0,0.1,0
		c0,0,0.1,0.1,0.1,0.1l0.1,0.2l2.1,5.5c0,0.1,0,0.1,0,0.1C9,21,9,21,8.9,21H7.7c-0.1,0-0.1,0-0.1,0c0,0-0.1-0.1-0.1-0.1
		c-0.1-0.1-0.1-0.3-0.2-0.4c-0.1-0.1-0.1-0.3-0.2-0.4H5c-0.1,0.1-0.1,0.3-0.2,0.4c-0.1,0.1-0.1,0.3-0.2,0.4c0,0.1-0.1,0.2-0.2,0.2
		H3.3c-0.1,0-0.1,0-0.1,0c0,0,0-0.1,0-0.1L5.4,15.1z M6.1,16.9C6.1,17,6,17.1,6,17.3c-0.1,0.2-0.1,0.3-0.2,0.5
		c-0.1,0.2-0.1,0.3-0.2,0.5c-0.1,0.2-0.1,0.3-0.2,0.4h1.2L6.1,16.9z"/>
</g>
<g id="Capa_5">
	<linearGradient id="SVGID_8_" gradientUnits="userSpaceOnUse" x1="9.9897" y1="17.9715" x2="14.9394" y2="17.9715">
		<stop  offset="0" style="stop-color:#2E3192"/>
		<stop  offset="1" style="stop-color:#373177"/>
	</linearGradient>
	<path class="st7" d="M13.9,16.7c-0.1-0.1-0.3-0.2-0.4-0.2c-0.2-0.1-0.3-0.1-0.5-0.1c-0.2,0-0.4,0-0.6,0.1s-0.3,0.2-0.5,0.3
		c-0.1,0.1-0.2,0.3-0.3,0.5c-0.1,0.2-0.1,0.4-0.1,0.6c0,0.2,0,0.4,0.1,0.6s0.2,0.4,0.3,0.5c0.1,0.1,0.3,0.3,0.5,0.3
		c0.2,0.1,0.4,0.1,0.6,0.1c0.1,0,0.2,0,0.3,0c0.1,0,0.2,0,0.3-0.1v-1c0-0.1,0-0.1,0-0.1c0,0,0.1-0.1,0.1-0.1h1.1c0,0,0.1,0,0.1,0.1
		c0,0,0.1,0.1,0.1,0.1v1.9c0,0.1,0,0.1-0.1,0.2c-0.1,0.1-0.3,0.2-0.4,0.2c-0.2,0.1-0.3,0.1-0.5,0.2c-0.2,0-0.3,0.1-0.5,0.1
		c-0.2,0-0.3,0-0.5,0c-0.3,0-0.5,0-0.8-0.1c-0.3-0.1-0.5-0.2-0.7-0.3c-0.2-0.1-0.4-0.3-0.6-0.5c-0.2-0.2-0.3-0.4-0.5-0.6
		c-0.1-0.2-0.2-0.5-0.3-0.7C10,18.5,10,18.3,10,18c0-0.3,0-0.5,0.1-0.8c0.1-0.3,0.2-0.5,0.3-0.7c0.1-0.2,0.3-0.4,0.5-0.6
		s0.4-0.3,0.6-0.5c0.2-0.1,0.5-0.2,0.7-0.3C12.4,15,12.7,15,13,15c0.3,0,0.6,0,0.9,0.1c0.3,0.1,0.5,0.2,0.8,0.4c0,0,0.1,0.1,0.1,0.1
		c0,0,0,0.1,0,0.1l-0.6,0.9c0,0-0.1,0.1-0.1,0.1C14,16.8,13.9,16.7,13.9,16.7z"/>
</g>
<g id="Capa_6">
	<linearGradient id="SVGID_9_" gradientUnits="userSpaceOnUse" x1="16.3041" y1="17.9817" x2="21.3353" y2="17.9817">
		<stop  offset="0" style="stop-color:#2E3192"/>
		<stop  offset="1" style="stop-color:#373177"/>
	</linearGradient>
	<path class="st8" d="M17.8,18.5c0,0.2,0,0.4,0.1,0.5c0.1,0.1,0.1,0.2,0.2,0.3c0.1,0.1,0.2,0.2,0.3,0.2c0.1,0,0.2,0.1,0.4,0.1
		c0.1,0,0.3,0,0.4-0.1c0.1-0.1,0.2-0.1,0.3-0.2c0.1-0.1,0.2-0.2,0.2-0.3c0.1-0.1,0.1-0.3,0.1-0.5v-3.4c0-0.1,0-0.1,0.1-0.1
		c0,0,0.1-0.1,0.1-0.1h1.2c0.1,0,0.1,0,0.1,0.1c0,0,0.1,0.1,0.1,0.1v3.4c0,0.5-0.1,0.9-0.2,1.2c-0.1,0.3-0.3,0.6-0.5,0.8
		c-0.2,0.2-0.5,0.3-0.8,0.4c-0.3,0.1-0.6,0.1-1,0.1s-0.7,0-1-0.1c-0.3-0.1-0.6-0.2-0.8-0.4c-0.2-0.2-0.4-0.4-0.5-0.8
		s-0.2-0.7-0.2-1.2v-3.4c0,0,0-0.1,0-0.1c0,0,0.1-0.1,0.1-0.1h1.2c0,0,0.1,0,0.1,0.1c0,0,0.1,0.1,0.1,0.1L17.8,18.5L17.8,18.5z"/>
</g>
<g id="Capa_7">
	<linearGradient id="SVGID_10_" gradientUnits="userSpaceOnUse" x1="22.2107" y1="17.9257" x2="28" y2="17.9257">
		<stop  offset="0" style="stop-color:#2E3192"/>
		<stop  offset="1" style="stop-color:#373177"/>
	</linearGradient>
	<path class="st9" d="M24.4,15.1C24.4,15.1,24.4,15.1,24.4,15.1c0-0.1,0.1-0.1,0.1-0.1c0,0,0,0,0.1,0c0,0,0.1,0,0.1,0h1
		c0,0,0.1,0,0.1,0c0,0,0.1,0.1,0.1,0.1l0.1,0.2l2.1,5.4c0,0.1,0,0.1,0,0.1c0,0-0.1,0.1-0.2,0.1h-1.1c-0.1,0-0.1,0-0.1,0
		s-0.1-0.1-0.1-0.1c-0.1-0.1-0.1-0.3-0.2-0.4c-0.1-0.1-0.1-0.3-0.2-0.4H24c-0.1,0.1-0.1,0.3-0.2,0.4c-0.1,0.1-0.1,0.3-0.2,0.4
		c0,0.1-0.1,0.1-0.2,0.1h-1.2c-0.1,0-0.1,0-0.1,0c0,0,0-0.1,0-0.1L24.4,15.1z M25.1,16.8C25.1,17,25,17.1,25,17.3s-0.1,0.3-0.2,0.5
		c-0.1,0.2-0.1,0.3-0.2,0.5c-0.1,0.2-0.1,0.3-0.2,0.4h1.2L25.1,16.8z"/>
</g>
<g id="Capa_3">
	<g>
		<linearGradient id="SVGID_11_" gradientUnits="userSpaceOnUse" x1="16.355" y1="23.3846" x2="18.5447" y2="23.3846">
			<stop  offset="0" style="stop-color:#2E3192"/>
			<stop  offset="1" style="stop-color:#373177"/>
		</linearGradient>
		<path class="st10" d="M16.8,21.8h1.7l-0.1,0.6h-1.1l-0.1,0.7h1l-0.1,0.6h-1L17,25h-0.7L16.8,21.8z"/>
		<linearGradient id="SVGID_12_" gradientUnits="userSpaceOnUse" x1="18.4938" y1="23.3846" x2="19.6141" y2="23.3846">
			<stop  offset="0" style="stop-color:#2E3192"/>
			<stop  offset="1" style="stop-color:#373177"/>
		</linearGradient>
		<path class="st11" d="M19,21.8h0.7L19.1,25h-0.7L19,21.8z"/>
		<linearGradient id="SVGID_13_" gradientUnits="userSpaceOnUse" x1="19.7872" y1="23.3795" x2="21.5797" y2="23.3795">
			<stop  offset="0" style="stop-color:#2E3192"/>
			<stop  offset="1" style="stop-color:#373177"/>
		</linearGradient>
		<path class="st12" d="M20.3,21.8h0.7l-0.4,2.6h1L21.5,25h-1.7L20.3,21.8z"/>
		<linearGradient id="SVGID_14_" gradientUnits="userSpaceOnUse" x1="21.8343" y1="23.3846" x2="25.348" y2="23.3846">
			<stop  offset="0" style="stop-color:#2E3192"/>
			<stop  offset="1" style="stop-color:#373177"/>
		</linearGradient>
		<path class="st13" d="M22.9,21.8h0.6l0.3,1.8l0.9-1.8h0.6V25h-0.6v-1.9l-1,1.9h-0.3l-0.4-2l-0.7,2h-0.6L22.9,21.8z"/>
		<linearGradient id="SVGID_15_" gradientUnits="userSpaceOnUse" x1="25.7554" y1="23.3836" x2="27.9858" y2="23.3836">
			<stop  offset="0" style="stop-color:#2E3192"/>
			<stop  offset="1" style="stop-color:#373177"/>
		</linearGradient>
		<path class="st14" d="M28,22.1l-0.4,0.5c-0.1-0.1-0.2-0.2-0.3-0.2s-0.2-0.1-0.2-0.1c-0.1,0-0.2,0-0.3,0.1
			c-0.1,0.1-0.1,0.2-0.1,0.3c0,0.1,0,0.2,0.1,0.3c0.1,0.1,0.2,0.2,0.4,0.2c0.2,0.1,0.3,0.2,0.3,0.2c0.1,0.1,0.1,0.1,0.2,0.2
			c0.1,0.1,0.1,0.2,0.1,0.4c0,0.3-0.1,0.5-0.3,0.7S27.1,25,26.8,25c-0.3,0-0.7-0.1-1-0.4l0.4-0.5c0.1,0.1,0.2,0.1,0.3,0.2
			c0.1,0.1,0.2,0.1,0.3,0.1s0.2,0,0.3-0.1c0.1-0.1,0.1-0.2,0.1-0.3s0-0.2-0.1-0.3c-0.1-0.1-0.2-0.1-0.4-0.2
			c-0.2-0.1-0.3-0.1-0.3-0.2c-0.1-0.1-0.1-0.1-0.2-0.2C26.1,23,26,22.9,26,22.7c0-0.3,0.1-0.5,0.3-0.7c0.2-0.2,0.5-0.3,0.8-0.3
			C27.4,21.7,27.7,21.9,28,22.1z"/>
	</g>
</g>
</svg>
